<svg width="147" height="157" viewBox="0 0 147 157" fill="none" xmlns="http://www.w3.org/2000/svg">
<rect x="7" width="72" height="157" fill="#A7C7E7"/>
<ellipse cx="79" cy="78.5" rx="68" ry="78.5" fill="#A7C7E7"/>
<ellipse cx="77.5" cy="79.5" rx="34.5" ry="38.5" fill="#113343"/>
<rect x="42" y="41" width="39" height="77" fill="#113343"/>
<path fill-rule="evenodd" clip-rule="evenodd" d="M50.6195 112.5C50.8696 111.038 51 109.535 51 108C51 93.6406 39.5833 82 25.5 82C11.4167 82 0 93.6406 0 108C0 109.535 0.130409 111.038 0.380546 112.5C2.47083 100.285 12.9219 91 25.5 91C38.0781 91 48.5292 100.285 50.6195 112.5Z" fill="#A7C7E7"/>
<path fill-rule="evenodd" clip-rule="evenodd" d="M50.6195 118.5C50.8696 117.038 51 115.535 51 114C51 99.6406 39.5833 88 25.5 88C11.4167 88 0 99.6406 0 114C0 115.535 0.130409 117.038 0.380546 118.5C2.47083 106.285 12.9219 97 25.5 97C38.0781 97 48.5292 106.285 50.6195 118.5Z" fill="#113343"/>
<path fill-rule="evenodd" clip-rule="evenodd" d="M50.6195 85.5C50.8696 84.0383 51 82.5347 51 81C51 66.6406 39.5833 55 25.5 55C11.4167 55 0 66.6406 0 81C0 82.5347 0.130409 84.0383 0.380546 85.5C2.47083 73.2853 12.9219 64 25.5 64C38.0781 64 48.5292 73.2853 50.6195 85.5Z" fill="#A7C7E7"/>
<path fill-rule="evenodd" clip-rule="evenodd" d="M50.6195 91.5C50.8696 90.0383 51 88.5347 51 87C51 72.6406 39.5833 61 25.5 61C11.4167 61 0 72.6406 0 87C0 88.5347 0.130409 90.0383 0.380546 91.5C2.47083 79.2853 12.9219 70 25.5 70C38.0781 70 48.5292 79.2853 50.6195 91.5Z" fill="#113343"/>
<path fill-rule="evenodd" clip-rule="evenodd" d="M50.6195 58.5C50.8696 57.0383 51 55.5347 51 54C51 39.6406 39.5833 28 25.5 28C11.4167 28 0 39.6406 0 54C0 55.5347 0.130409 57.0383 0.380546 58.5C2.47083 46.2853 12.9219 37 25.5 37C38.0781 37 48.5292 46.2853 50.6195 58.5Z" fill="#A7C7E7"/>
<path fill-rule="evenodd" clip-rule="evenodd" d="M50.6195 64.5C50.8696 63.0383 51 61.5347 51 60C51 45.6406 39.5833 34 25.5 34C11.4167 34 0 45.6406 0 60C0 61.5347 0.130409 63.0383 0.380546 64.5C2.47083 52.2853 12.9219 43 25.5 43C38.0781 43 48.5292 52.2853 50.6195 64.5Z" fill="#113343"/>
</svg>
